<?xml version="1.0" encoding="UTF-8" standalone="no"?>
<!-- Created with Inkscape (http://www.inkscape.org/) -->

<svg
   xmlns:dc="http://purl.org/dc/elements/1.1/"
   xmlns:cc="http://creativecommons.org/ns#"
   xmlns:rdf="http://www.w3.org/1999/02/22-rdf-syntax-ns#"
   xmlns:svg="http://www.w3.org/2000/svg"
   xmlns="http://www.w3.org/2000/svg"
   xmlns:sodipodi="http://sodipodi.sourceforge.net/DTD/sodipodi-0.dtd"
   xmlns:inkscape="http://www.inkscape.org/namespaces/inkscape"
   width="980.00006"
   height="268"
   id="svg4557"
   version="1.1"
   inkscape:version="0.48.4 r9939"
   sodipodi:docname="New document 6">
  <defs
     id="defs4559" />
  <sodipodi:namedview
     id="base"
     pagecolor="#ffffff"
     bordercolor="#666666"
     borderopacity="1.0"
     inkscape:pageopacity="0.0"
     inkscape:pageshadow="2"
     inkscape:zoom="0.98994949"
     inkscape:cx="506.17906"
     inkscape:cy="-42.330653"
     inkscape:document-units="px"
     inkscape:current-layer="layer1"
     showgrid="false"
     fit-margin-top="5"
     fit-margin-left="5"
     fit-margin-right="5"
     fit-margin-bottom="5"
     inkscape:window-width="1280"
     inkscape:window-height="969"
     inkscape:window-x="-2"
     inkscape:window-y="-3"
     inkscape:window-maximized="1" />
  <metadata
     id="metadata4562">
    <rdf:RDF>
      <cc:Work
         rdf:about="">
        <dc:format>image/svg+xml</dc:format>
        <dc:type
           rdf:resource="http://purl.org/dc/dcmitype/StillImage" />
        <dc:title></dc:title>
      </cc:Work>
    </rdf:RDF>
  </metadata>
  <g
     inkscape:label="Layer 1"
     inkscape:groupmode="layer"
     id="layer1"
     transform="translate(352.85721,-255.50504)">
    <path
       d="m -238.85713,498.50504 0,0 c 0,-12.7553 -21.245,-24 -49,-24 l 0,-1 0,1 c -27.755,0 -49,11.2447 -49,24 l 0,1 -2,0 0,-1 c 0,-14.8589 23.5266,-26 51,-26 l 0,0 c 27.4735,0 51,11.1411 51,26 l 0,1 -2,0 z"
       id="path3249"
       inkscape:connector-curvature="0"
       style="font-size:16px;fill:#ff0000;stroke:none;font-family:Serif" />
    <path
       d="m 511.14286,499.00504 0,0 c 0,-116.3087 -189.1382,-211.5 -423.999999,-211.5 l 0,-1 0,1 c -234.861791,0 -423.999991,95.1913 -423.999991,211.5 l 0,1 -2,0 0,-1 c 0,-118.4123 191.4198,-213.5 425.999991,-213.5 l 0,0 c 234.580199,0 425.999999,95.0877 425.999999,213.5 l 0,1 -2,0 z"
       id="path3251"
       inkscape:connector-curvature="0"
       style="font-size:16px;fill:#ff0000;stroke:none;font-family:Serif" />
    <path
       d="m 611.14286,499.00504 0,0 c 0,-130.1158 -211.5239,-236.5 -474,-236.5 l 0,-1 0,1 c -262.47599,0 -473.99999,106.3842 -473.99999,236.5 l 0,1 -2,0 0,-1 c 0,-132.2194 213.8055,-238.5 475.99999,-238.5 l 0,0 c 262.1945,0 476,106.2806 476,238.5 l 0,1 -2,0 z"
       id="path3253"
       inkscape:connector-curvature="0"
       style="font-size:16px;fill:#0000ff;stroke:none;font-family:Serif" />
    <path
       d="m -188.85713,498.50504 0,0 c 0,-12.7553 -21.245,-24 -49,-24 l 0,-1 0,1 c -27.755,0 -49,11.2447 -49,24 l 0,1 -2,0 0,-1 c 0,-14.8589 23.5265,-26 51,-26 l 0,0 c 27.4735,0 51,11.1411 51,26 l 0,1 -2,0 z"
       id="path3255"
       inkscape:connector-curvature="0"
       style="font-size:16px;fill:#ff0000;stroke:none;font-family:Serif" />
    <path
       d="m -138.85713,498.50504 0,0 c 0,-12.7553 -21.245,-24 -49,-24 l 0,-1 0,1 c -27.755,0 -49,11.2447 -49,24 l 0,1 -2,0 0,-1 c 0,-14.8589 23.5265,-26 51,-26 l 0,0 c 27.4735,0 51,11.1411 51,26 l 0,1 -2,0 z"
       id="path3257"
       inkscape:connector-curvature="0"
       style="font-size:16px;fill:#ff0000;stroke:none;font-family:Serif" />
    <path
       d="m -138.85713,499.00504 0,0 c 0,-5.8517 -10.0521,-11.5 -24,-11.5 l 0,-1 0,1 c -13.9479,0 -24,5.6483 -24,11.5 l 0,1 -2,0 0,-1 c 0,-7.9553 12.3337,-13.5 26,-13.5 l 0,0 c 13.6664,0 26,5.5447 26,13.5 l 0,1 -2,0 z"
       id="path3259"
       inkscape:connector-curvature="0"
       style="font-size:16px;fill:#00ff00;stroke:none;font-family:Serif" />
    <path
       d="m -38.857129,498.50504 0,0 c 0,-12.7553 -21.245,-24 -49,-24 l 0,-1 0,1 c -27.755001,0 -49.000001,11.2447 -49.000001,24 l 0,1 -2,0 0,-1 c 0,-14.8589 23.5265,-26 51.000001,-26 l 0,0 c 27.4735,0 51,11.1411 51,26 l 0,1 -2,0 z"
       id="path3261"
       inkscape:connector-curvature="0"
       style="font-size:16px;fill:#ff0000;stroke:none;font-family:Serif" />
    <path
       d="m 111.14286,499.00504 0,0 c 0,-19.6588 -32.437799,-36.5 -73.999989,-36.5 l 0,-1 0,1 c -41.5621996,0 -74,16.8412 -74,36.5 l 0,1 -2,0 0,-1 c 0,-21.7625 34.7193004,-38.5 76,-38.5 l 0,0 c 41.28059,0 75.999989,16.7375 75.999989,38.5 l 0,1 -2,0 z"
       id="path3263"
       inkscape:connector-curvature="0"
       style="font-size:16px;fill:#ff0000;stroke:none;font-family:Serif" />
    <path
       d="m 211.14286,499.00504 0,0 c 0,-19.6588 -32.4378,-36.5 -74,-36.5 l 0,-1 0,1 c -41.562199,0 -73.999999,16.8412 -73.999999,36.5 l 0,1 -2,0 0,-1 c 0,-21.7625 34.7193,-38.5 75.999999,-38.5 l 0,0 c 41.2806,0 76,16.7375 76,38.5 l 0,1 -2,0 z"
       id="path3265"
       inkscape:connector-curvature="0"
       style="font-size:16px;fill:#00ff00;stroke:none;font-family:Serif" />
    <path
       d="m 261.14286,499.00504 0,0 c 0,-19.6588 -32.4378,-36.5 -74,-36.5 l 0,-1 0,1 c -41.5622,0 -74,16.8412 -74,36.5 l 0,1 -2,0 0,-1 c 0,-21.7625 34.7194,-38.5 76,-38.5 l 0,0 c 41.2806,0 76,16.7375 76,38.5 l 0,1 -2,0 z"
       id="path3267"
       inkscape:connector-curvature="0"
       style="font-size:16px;fill:#ff0000;stroke:none;font-family:Serif" />
    <path
       d="m 361.14286,499.00504 0,0 c 0,-19.6588 -32.4378,-36.5 -74,-36.5 l 0,-1 0,1 c -41.5622,0 -74,16.8412 -74,36.5 l 0,1 -2,0 0,-1 c 0,-21.7625 34.7194,-38.5 76,-38.5 l 0,0 c 41.2806,0 76,16.7375 76,38.5 l 0,1 -2,0 z"
       id="path3269"
       inkscape:connector-curvature="0"
       style="font-size:16px;fill:#ff0000;stroke:none;font-family:Serif" />
    <path
       d="m 411.14286,499.00504 0,0 c 0,-19.6588 -32.4378,-36.5 -74,-36.5 l 0,-1 0,1 c -41.5622,0 -74,16.8412 -74,36.5 l 0,1 -2,0 0,-1 c 0,-21.7625 34.7194,-38.5 76,-38.5 l 0,0 c 41.2806,0 76,16.7375 76,38.5 l 0,1 -2,0 z"
       id="path3271"
       inkscape:connector-curvature="0"
       style="font-size:16px;fill:#ff0000;stroke:none;font-family:Serif" />
    <path
       d="m 411.14286,499.00504 0,0 c 0,-5.8517 -10.0521,-11.5 -24,-11.5 l 0,-1 0,1 c -13.9479,0 -24,5.6483 -24,11.5 l 0,1 -2,0 0,-1 c 0,-7.9553 12.3337,-13.5 26,-13.5 l 0,0 c 13.6663,0 26,5.5447 26,13.5 l 0,1 -2,0 z"
       id="path3273"
       inkscape:connector-curvature="0"
       style="font-size:16px;fill:#00ff00;stroke:none;font-family:Serif" />
    <path
       d="m 511.14286,498.50504 0,0 c 0,-12.7553 -21.2449,-24 -49,-24 l 0,-1 0,1 c -27.7551,0 -49,11.2447 -49,24 l 0,1 -2,0 0,-1 c 0,-14.8589 23.5266,-26 51,-26 l 0,0 c 27.4734,0 51,11.1411 51,26 l 0,1 -2,0 z"
       id="path3275"
       inkscape:connector-curvature="0"
       style="font-size:16px;fill:#ff0000;stroke:none;font-family:Serif" />
    <rect
       x="-347.85721"
       width="20"
       height="20"
       y="498.50504"
       id="rect3277"
       style="font-size:16px;stroke:none;font-family:Serif" />
    <circle
       transform="translate(-427.85713,158.50504)"
       r="10"
       cx="140"
       cy="350"
       id="circle3279"
       d="m 150,350 c 0,5.52285 -4.47715,10 -10,10 -5.52285,0 -10,-4.47715 -10,-10 0,-5.52285 4.47715,-10 10,-10 5.52285,0 10,4.47715 10,10 z"
       sodipodi:cx="140"
       sodipodi:cy="350"
       sodipodi:rx="10"
       sodipodi:ry="10"
       style="font-size:16px;fill:#ff0000;stroke:none;font-family:Serif" />
    <rect
       x="-247.85719"
       width="20"
       height="20"
       y="498.50504"
       id="rect3281"
       style="font-size:16px;stroke:none;font-family:Serif" />
    <circle
       transform="translate(-427.85713,158.50504)"
       r="10"
       cx="240"
       cy="350"
       id="circle3283"
       d="m 250,350 c 0,5.52285 -4.47715,10 -10,10 -5.52285,0 -10,-4.47715 -10,-10 0,-5.52285 4.47715,-10 10,-10 5.52285,0 10,4.47715 10,10 z"
       sodipodi:cx="240"
       sodipodi:cy="350"
       sodipodi:rx="10"
       sodipodi:ry="10"
       style="font-size:16px;fill:#ff0000;stroke:none;font-family:Serif" />
    <rect
       x="-147.85719"
       width="20"
       height="20"
       y="498.50504"
       id="rect3285"
       style="font-size:16px;stroke:none;font-family:Serif" />
    <circle
       transform="translate(-427.85713,158.50504)"
       r="10"
       cx="340"
       cy="350"
       id="circle3287"
       d="m 350,350 c 0,5.52285 -4.47715,10 -10,10 -5.52285,0 -10,-4.47715 -10,-10 0,-5.52285 4.47715,-10 10,-10 5.52285,0 10,4.47715 10,10 z"
       sodipodi:cx="340"
       sodipodi:cy="350"
       sodipodi:rx="10"
       sodipodi:ry="10"
       style="font-size:16px;fill:#ff0000;stroke:none;font-family:Serif" />
    <rect
       x="-47.857197"
       width="20"
       height="20"
       y="498.50504"
       id="rect3289"
       style="font-size:16px;stroke:none;font-family:Serif" />
    <circle
       transform="translate(-427.85713,158.50504)"
       r="10"
       cx="440"
       cy="350"
       id="circle3291"
       d="m 450,350 c 0,5.52285 -4.47715,10 -10,10 -5.52285,0 -10,-4.47715 -10,-10 0,-5.52285 4.47715,-10 10,-10 5.52285,0 10,4.47715 10,10 z"
       sodipodi:cx="440"
       sodipodi:cy="350"
       sodipodi:rx="10"
       sodipodi:ry="10"
       style="font-size:16px;fill:#ff0000;stroke:none;font-family:Serif" />
    <circle
       transform="translate(-427.85713,158.50504)"
       r="10"
       cx="490"
       cy="350"
       id="circle3293"
       d="m 500,350 c 0,5.52285 -4.47715,10 -10,10 -5.52285,0 -10,-4.47715 -10,-10 0,-5.52285 4.47715,-10 10,-10 5.52285,0 10,4.47715 10,10 z"
       sodipodi:cx="490"
       sodipodi:cy="350"
       sodipodi:rx="10"
       sodipodi:ry="10"
       style="font-size:16px;fill:#ff0000;stroke:none;font-family:Serif" />
    <rect
       x="102.14287"
       width="20"
       height="20"
       y="498.50504"
       id="rect3295"
       style="font-size:16px;stroke:none;font-family:Serif" />
    <circle
       transform="translate(-427.85713,158.50504)"
       r="10"
       cx="590"
       cy="350"
       id="circle3297"
       d="m 600,350 c 0,5.52285 -4.47715,10 -10,10 -5.52285,0 -10,-4.47715 -10,-10 0,-5.52285 4.47715,-10 10,-10 5.52285,0 10,4.47715 10,10 z"
       sodipodi:cx="590"
       sodipodi:cy="350"
       sodipodi:rx="10"
       sodipodi:ry="10"
       style="font-size:16px;fill:#ff0000;stroke:none;font-family:Serif" />
    <circle
       transform="translate(-427.85713,158.50504)"
       r="10"
       cx="640"
       cy="350"
       id="circle3299"
       d="m 650,350 c 0,5.52285 -4.47715,10 -10,10 -5.52285,0 -10,-4.47715 -10,-10 0,-5.52285 4.47715,-10 10,-10 5.52285,0 10,4.47715 10,10 z"
       sodipodi:cx="640"
       sodipodi:cy="350"
       sodipodi:rx="10"
       sodipodi:ry="10"
       style="font-size:16px;fill:#ff0000;stroke:none;font-family:Serif" />
    <rect
       x="252.14287"
       width="20"
       height="20"
       y="498.50504"
       id="rect3301"
       style="font-size:16px;stroke:none;font-family:Serif" />
    <circle
       transform="translate(-427.85713,158.50504)"
       r="10"
       cx="740"
       cy="350"
       id="circle3303"
       d="m 750,350 c 0,5.52285 -4.47715,10 -10,10 -5.52285,0 -10,-4.47715 -10,-10 0,-5.52285 4.47715,-10 10,-10 5.52285,0 10,4.47715 10,10 z"
       sodipodi:cx="740"
       sodipodi:cy="350"
       sodipodi:rx="10"
       sodipodi:ry="10"
       style="font-size:16px;fill:#ff0000;stroke:none;font-family:Serif" />
    <circle
       transform="translate(-427.85713,158.50504)"
       r="10"
       cx="790"
       cy="350"
       id="circle3305"
       d="m 800,350 c 0,5.52285 -4.47715,10 -10,10 -5.52285,0 -10,-4.47715 -10,-10 0,-5.52285 4.47715,-10 10,-10 5.52285,0 10,4.47715 10,10 z"
       sodipodi:cx="790"
       sodipodi:cy="350"
       sodipodi:rx="10"
       sodipodi:ry="10"
       style="font-size:16px;fill:#ff0000;stroke:none;font-family:Serif" />
    <rect
       x="402.14285"
       width="20"
       height="20"
       y="498.50504"
       id="rect3307"
       style="font-size:16px;stroke:none;font-family:Serif" />
    <circle
       transform="translate(-427.85713,158.50504)"
       r="10"
       cx="890"
       cy="350"
       id="circle3309"
       d="m 900,350 c 0,5.52285 -4.47715,10 -10,10 -5.52285,0 -10,-4.47715 -10,-10 0,-5.52285 4.47715,-10 10,-10 5.52285,0 10,4.47715 10,10 z"
       sodipodi:cx="890"
       sodipodi:cy="350"
       sodipodi:rx="10"
       sodipodi:ry="10"
       style="font-size:16px;fill:#ff0000;stroke:none;font-family:Serif" />
    <rect
       x="502.14285"
       width="20"
       height="20"
       y="498.50504"
       id="rect3311"
       style="font-size:16px;stroke:none;font-family:Serif" />
    <circle
       transform="translate(-427.85713,158.50504)"
       r="10"
       cx="990"
       cy="350"
       id="circle3313"
       d="m 1000,350 c 0,5.52285 -4.47715,10 -10,10 -5.52285,0 -10,-4.47715 -10,-10 0,-5.52285 4.47715,-10 10,-10 5.52285,0 10,4.47715 10,10 z"
       sodipodi:cx="990"
       sodipodi:cy="350"
       sodipodi:rx="10"
       sodipodi:ry="10"
       style="font-size:16px;fill:#ff0000;stroke:none;font-family:Serif" />
    <circle
       transform="translate(-427.85713,158.50504)"
       r="10"
       cx="1040"
       cy="350"
       id="circle3315"
       d="m 1050,350 c 0,5.52285 -4.4772,10 -10,10 -5.5228,0 -10,-4.47715 -10,-10 0,-5.52285 4.4772,-10 10,-10 5.5228,0 10,4.47715 10,10 z"
       sodipodi:cx="1040"
       sodipodi:cy="350"
       sodipodi:rx="10"
       sodipodi:ry="10"
       style="font-size:16px;fill:#ff0000;stroke:none;font-family:Serif" />
  </g>
</svg>
