<?xml version="1.0" encoding="UTF-8" standalone="no"?>
<svg
   xmlns:dc="http://purl.org/dc/elements/1.1/"
   xmlns:cc="http://creativecommons.org/ns#"
   xmlns:rdf="http://www.w3.org/1999/02/22-rdf-syntax-ns#"
   xmlns:svg="http://www.w3.org/2000/svg"
   xmlns="http://www.w3.org/2000/svg"
   xmlns:sodipodi="http://sodipodi.sourceforge.net/DTD/sodipodi-0.dtd"
   xmlns:inkscape="http://www.inkscape.org/namespaces/inkscape"
   color-rendering="auto"
   color-interpolation="auto"
   text-rendering="auto"
   stroke-miterlimit="10"
   shape-rendering="auto"
   font-weight="normal"
   font-style="normal"
   font-size="12px"
   image-rendering="auto"
   id="svg2"
   version="1.1"
   inkscape:version="0.48.2 r9819"
   width="1179.7031"
   height="356.61258"
   sodipodi:docname="protein_ligand_graph.svg"
   style="font-size:12px;font-style:normal;font-weight:normal;fill:#000000;fill-opacity:1;stroke:#000000;stroke-width:1;stroke-linecap:square;stroke-linejoin:miter;stroke-miterlimit:10;stroke-opacity:1;stroke-dasharray:none;stroke-dashoffset:0;font-family:Dialog">
  <metadata
     id="metadata221">
    <rdf:RDF>
      <cc:Work
         rdf:about="">
        <dc:format>image/svg+xml</dc:format>
        <dc:type
           rdf:resource="http://purl.org/dc/dcmitype/StillImage" />
        <dc:title></dc:title>
      </cc:Work>
    </rdf:RDF>
  </metadata>
  <sodipodi:namedview
     pagecolor="#ffffff"
     bordercolor="#666666"
     borderopacity="1"
     objecttolerance="10"
     gridtolerance="10"
     guidetolerance="10"
     inkscape:pageopacity="1"
     inkscape:pageshadow="2"
     inkscape:window-width="1920"
     inkscape:window-height="1033"
     id="namedview219"
     showgrid="false"
     fit-margin-top="10"
     fit-margin-left="10"
     fit-margin-right="10"
     fit-margin-bottom="10"
     inkscape:zoom="0.89702957"
     inkscape:cx="633.98526"
     inkscape:cy="135.35644"
     inkscape:window-x="-4"
     inkscape:window-y="-4"
     inkscape:window-maximized="1"
     inkscape:current-layer="g13" />
  <!--Generated by the Batik Graphics2D SVG Generator-->
  <defs
     id="genericDefs" />
  <g
     id="g5"
     transform="translate(38.979934,-105.37748)">
    <g
       text-rendering="optimizeLegibility"
       font-size="16px"
       id="g13"
       style="font-size:16px;fill:#ff0000;stroke:#ff0000;stroke-width:2"
       transform="translate(-60.198684,13.377485)">
      <path
         d="m 191,365 c 0,-3.6877 -1.4835,-7.2063 -4.1661,-10.3773 -2.6179,-3.0946 -6.3861,-5.8722 -11.0317,-8.195 C 166.6157,341.8345 153.9617,339 140,339 c -13.9617,0 -26.6157,2.8345 -35.8022,7.4277 -4.6456,2.3228 -8.4138,5.1004 -11.0317,8.195 C 90.4835,357.7937 89,361.3123 89,365 l 0,1 2,0 0,-1 c 0,-3.2159 1.3147,-6.274 3.6924,-9.085 2.4424,-2.8873 5.9965,-5.4967 10.3991,-7.6981 C 114.0014,343.7619 126.3475,341 140,341 c 13.6525,0 25.9986,2.7619 34.9085,7.2169 4.4026,2.2014 7.9567,4.8108 10.3991,7.6981 2.3777,2.811 3.6924,5.8691 3.6924,9.085 l 0,1 2,0 0,-1 z"
         id="path15"
         inkscape:connector-curvature="0"
         style="stroke:none" />
      <path
         d="M 991,365 C 991,333.6981 978.3236,303.8723 955.4,276.7737 932.541,249.7514 899.4834,225.4256 858.6448,205.0064 777.0726,164.2203 664.4186,139 540,139 415.5813,139 302.9274,164.2203 221.3551,205.0064 180.5166,225.4256 147.459,249.7514 124.6,276.7737 101.6764,303.8723 89,333.6981 89,365 l 0,1 2,0 0,-1 c 0,-30.8301 12.5076,-60.1953 35.1264,-86.934 22.6835,-26.8149 55.5269,-50.9726 96.1224,-71.2704 C 303.5445,166.1477 415.8905,141 540,141 c 124.1094,0 236.4555,25.1477 317.7512,65.7956 40.5955,20.2978 73.4389,44.4555 96.1224,71.2704 C 976.4924,304.8047 989,334.1699 989,365 l 0,1 2,0 0,-1 z"
         id="path17"
         inkscape:connector-curvature="0"
         style="stroke:none" />
      <path
         d="m 1141,365.5 c 0,-36.4796 -14.775,-71.2379 -41.4939,-102.823 -26.6543,-31.5087 -65.2036,-59.8749 -112.8282,-83.6871 C 891.5333,131.4176 760.1293,102 615,102 469.8707,102 338.4667,131.4176 243.3221,178.9899 195.6974,202.8021 157.1481,231.1683 130.4939,262.677 103.7751,294.2621 89,329.0204 89,365.5 l 0,1 2,0 0,-1 C 91,329.4922 105.6063,295.1944 132.0203,263.9693 158.499,232.6679 196.8342,204.47 244.2158,180.7791 339.0838,133.345 470.1799,104 615,104 c 144.8201,0 275.9162,29.345 370.7842,76.7791 47.3816,23.6909 85.7168,51.8888 112.1955,83.1902 C 1124.3937,295.1944 1139,329.4922 1139,365.5 l 0,1 2,0 0,-1 z"
         id="path19"
         inkscape:connector-curvature="0"
         style="fill:#ff00ff;stroke:none" />
      <path
         d="m 241,365 c 0,-3.6877 -1.4835,-7.2063 -4.1661,-10.3773 -2.6179,-3.0946 -6.3861,-5.8722 -11.0317,-8.195 C 216.6157,341.8345 203.9617,339 190,339 c -13.9617,0 -26.6157,2.8345 -35.8022,7.4277 -4.6456,2.3228 -8.4138,5.1004 -11.0317,8.195 C 140.4835,357.7937 139,361.3123 139,365 l 0,1 2,0 0,-1 c 0,-3.2159 1.3147,-6.274 3.6924,-9.085 2.4424,-2.8873 5.9965,-5.4967 10.3991,-7.6981 C 164.0014,343.7619 176.3475,341 190,341 c 13.6525,0 25.9986,2.7619 34.9085,7.2169 4.4026,2.2014 7.9567,4.8108 10.3991,7.6981 2.3777,2.811 3.6924,5.8691 3.6924,9.085 l 0,1 2,0 0,-1 z"
         id="path21"
         inkscape:connector-curvature="0"
         style="stroke:none" />
      <path
         d="m 291,365 c 0,-3.6877 -1.4835,-7.2063 -4.1661,-10.3773 -2.6179,-3.0946 -6.3861,-5.8722 -11.0317,-8.195 C 266.6157,341.8345 253.9617,339 240,339 c -13.9617,0 -26.6157,2.8345 -35.8022,7.4277 -4.6456,2.3228 -8.4138,5.1004 -11.0317,8.195 C 190.4835,357.7937 189,361.3123 189,365 l 0,1 2,0 0,-1 c 0,-3.2159 1.3147,-6.274 3.6924,-9.085 2.4424,-2.8873 5.9965,-5.4967 10.3991,-7.6981 C 214.0014,343.7619 226.3475,341 240,341 c 13.6525,0 25.9986,2.7619 34.9085,7.2169 4.4026,2.2014 7.9567,4.8108 10.3991,7.6981 2.3777,2.811 3.6924,5.8691 3.6924,9.085 l 0,1 2,0 0,-1 z"
         id="path23"
         inkscape:connector-curvature="0"
         style="stroke:none" />
      <path
         d="m 391,365 c 0,-3.6877 -1.4835,-7.2063 -4.1661,-10.3773 -2.6179,-3.0946 -6.3861,-5.8722 -11.0317,-8.195 C 366.6157,341.8345 353.9617,339 340,339 c -13.9617,0 -26.6157,2.8345 -35.8022,7.4277 -4.6456,2.3228 -8.4138,5.1004 -11.0317,8.195 C 290.4835,357.7937 289,361.3123 289,365 l 0,1 2,0 0,-1 c 0,-3.2159 1.3147,-6.274 3.6924,-9.085 2.4424,-2.8873 5.9965,-5.4967 10.3991,-7.6981 C 314.0014,343.7619 326.3475,341 340,341 c 13.6525,0 25.9986,2.7619 34.9085,7.2169 4.4026,2.2014 7.9567,4.8108 10.3991,7.6981 2.3777,2.811 3.6924,5.8691 3.6924,9.085 l 0,1 2,0 0,-1 z"
         id="path25"
         inkscape:connector-curvature="0"
         style="stroke:none" />
      <path
         d="m 541,365.5 c 0,-5.4135 -2.183,-10.5764 -6.1307,-15.2429 -3.883,-4.59 -9.4817,-8.7144 -16.3894,-12.1682 C 504.7693,331.2336 485.8653,327 465,327 c -20.8653,0 -39.7693,4.2336 -53.4799,11.0889 -6.9076,3.4538 -12.5064,7.5782 -16.3894,12.1682 C 391.1831,354.9236 389,360.0865 389,365.5 l 0,1 2,0 0,-1 c 0,-4.9418 2.0143,-9.6441 5.657,-13.9505 3.7075,-4.3828 9.0922,-8.339 15.7568,-11.6714 C 425.8479,333.161 444.4439,329 465,329 c 20.5561,0 39.1521,4.161 52.5862,10.8781 6.6647,3.3324 12.0493,7.2886 15.7568,11.6714 3.6428,4.3064 5.657,9.0087 5.657,13.9505 l 0,1 2,0 0,-1 z"
         id="path27"
         inkscape:connector-curvature="0"
         style="stroke:none" />
      <path
         d="m 1141,365 c 0,-24.3983 -9.8781,-47.6474 -27.7415,-68.7641 -17.7987,-21.0403 -43.5339,-39.9791 -75.3242,-55.8742 C 974.4584,208.6239 886.8044,189 790,189 c -96.8044,0 -184.4584,19.6239 -247.9342,51.3617 -31.7903,15.8951 -57.5255,34.8339 -75.3243,55.8742 C 448.8782,317.3526 439,340.6017 439,365 l 0,1 2,0 0,-1 c 0,-23.9266 9.7094,-46.7151 27.2679,-67.4717 17.6232,-20.8331 43.1443,-39.6037 74.6916,-55.3774 C 606.1587,210.5512 693.5048,191 790,191 c 96.4952,0 183.8414,19.5512 247.0405,51.1509 31.5474,15.7737 57.0685,34.5443 74.6917,55.3774 C 1129.2906,318.2849 1139,341.0734 1139,365 l 0,1 2,0 0,-1 z"
         id="path29"
         inkscape:connector-curvature="0"
         style="fill:#ff00ff;stroke:none" />
      <path
         d="m 641,365.5 c 0,-5.4135 -2.183,-10.5764 -6.1307,-15.2429 -3.883,-4.59 -9.4817,-8.7144 -16.3894,-12.1682 C 604.7692,331.2336 585.8653,327 565,327 c -20.8653,0 -39.7692,4.2336 -53.4799,11.0889 -6.9076,3.4538 -12.5064,7.5782 -16.3894,12.1682 C 491.1831,354.9236 489,360.0865 489,365.5 l 0,1 2,0 0,-1 c 0,-4.9418 2.0143,-9.6441 5.657,-13.9505 3.7075,-4.3828 9.0922,-8.339 15.7568,-11.6714 C 525.8478,333.161 544.4439,329 565,329 c 20.5561,0 39.1522,4.161 52.5862,10.8781 6.6647,3.3324 12.0493,7.2886 15.7568,11.6714 3.6428,4.3064 5.657,9.0087 5.657,13.9505 l 0,1 2,0 0,-1 z"
         id="path31"
         inkscape:connector-curvature="0"
         style="stroke:none" />
      <path
         d="m 641,365 c 0,-3.6877 -1.4835,-7.2063 -4.166,-10.3773 -2.6179,-3.0946 -6.3862,-5.8722 -11.0318,-8.195 C 616.6157,341.8345 603.9617,339 590,339 c -13.9617,0 -26.6157,2.8345 -35.8022,7.4277 -4.6456,2.3228 -8.4139,5.1004 -11.0318,8.195 C 540.4835,357.7937 539,361.3123 539,365 l 0,1 2,0 0,-1 c 0,-3.2159 1.3147,-6.274 3.6924,-9.085 2.4424,-2.8873 5.9965,-5.4967 10.3991,-7.6981 C 564.0014,343.7619 576.3475,341 590,341 c 13.6525,0 25.9986,2.7619 34.9085,7.2169 4.4026,2.2014 7.9567,4.8108 10.3991,7.6981 2.3777,2.811 3.6924,5.8691 3.6924,9.085 l 0,1 2,0 0,-1 z"
         id="path33"
         inkscape:connector-curvature="0"
         style="fill:#00ff00;stroke:none" />
      <path
         d="m 691,365.5 c 0,-5.4135 -2.183,-10.5764 -6.1307,-15.2429 -3.883,-4.59 -9.4817,-8.7144 -16.3894,-12.1682 C 654.7692,331.2336 635.8653,327 615,327 c -20.8653,0 -39.7692,4.2336 -53.4799,11.0889 -6.9077,3.4538 -12.5064,7.5782 -16.3894,12.1682 C 541.183,354.9236 539,360.0865 539,365.5 l 0,1 2,0 0,-1 c 0,-4.9418 2.0142,-9.6441 5.657,-13.9505 3.7075,-4.3828 9.0921,-8.339 15.7568,-11.6714 C 575.8478,333.161 594.4439,329 615,329 c 20.5561,0 39.1522,4.161 52.5862,10.8781 6.6647,3.3324 12.0493,7.2886 15.7568,11.6714 3.6428,4.3064 5.657,9.0087 5.657,13.9505 l 0,1 2,0 0,-1 z"
         id="path35"
         inkscape:connector-curvature="0"
         style="stroke:none" />
      <path
         d="m 1141,365 c 0,-20.9466 -8.479,-40.9072 -23.8123,-59.033 -15.2686,-18.0493 -37.3426,-34.2946 -64.6087,-47.9276 C 998.1513,230.8256 922.9973,214 840,214 c -82.9973,0 -158.1512,16.8256 -212.5789,44.0394 -27.2662,13.633 -49.3402,29.8783 -64.6088,47.9276 C 547.4791,324.0928 539,344.0534 539,365 l 0,1 2,0 0,-1 c 0,-20.4748 8.3102,-39.9749 23.3386,-57.7406 15.0931,-17.8421 36.953,-33.9192 63.9762,-47.4308 C 682.4658,232.753 757.3119,216 840,216 c 82.6881,0 157.5342,16.753 211.6852,43.8286 27.0232,13.5116 48.883,29.5887 63.9762,47.4308 C 1130.6897,325.0251 1139,344.5252 1139,365 l 0,1 2,0 0,-1 z"
         id="path37"
         inkscape:connector-curvature="0"
         style="fill:#ff00ff;stroke:none" />
      <path
         d="m 791,365.5 c 0,-5.4135 -2.183,-10.5764 -6.1307,-15.2429 -3.883,-4.59 -9.4817,-8.7144 -16.3894,-12.1682 C 754.7692,331.2336 735.8653,327 715,327 c -20.8653,0 -39.7692,4.2336 -53.4799,11.0889 -6.9077,3.4538 -12.5064,7.5782 -16.3894,12.1682 C 641.183,354.9236 639,360.0865 639,365.5 l 0,1 2,0 0,-1 c 0,-4.9418 2.0142,-9.6441 5.657,-13.9505 3.7075,-4.3828 9.0921,-8.339 15.7568,-11.6714 C 675.8478,333.161 694.4439,329 715,329 c 20.5561,0 39.1522,4.161 52.5862,10.8781 6.6647,3.3324 12.0493,7.2886 15.7568,11.6714 3.6428,4.3064 5.657,9.0087 5.657,13.9505 l 0,1 2,0 0,-1 z"
         id="path39"
         inkscape:connector-curvature="0"
         style="stroke:none" />
      <path
         d="m 891,365 c 0,-7.1394 -2.8826,-13.9465 -8.0953,-20.1085 -5.148,-6.0855 -12.5774,-11.5566 -21.7472,-16.1414 C 842.9228,319.6328 817.7689,314 790,314 c -27.7689,0 -52.9228,5.6328 -71.1575,14.7501 -9.1698,4.5848 -16.5992,10.0559 -21.7472,16.1414 C 691.8826,351.0535 689,357.8606 689,365 l 0,1 2,0 0,-1 c 0,-6.6677 2.7138,-13.0142 7.6217,-18.8161 4.9725,-5.8783 12.1877,-11.1812 21.1144,-15.6447 C 737.6943,321.5601 762.5403,316 790,316 c 27.4597,0 52.3057,5.5601 70.2639,14.5392 8.9267,4.4635 16.1419,9.7664 21.1144,15.6447 C 886.2862,351.9858 889,358.3323 889,365 l 0,1 2,0 0,-1 z"
         id="path41"
         inkscape:connector-curvature="0"
         style="stroke:none" />
      <path
         d="m 1141,365 c 0,-14.043 -5.6808,-27.4268 -15.9539,-39.5707 -10.2082,-12.0675 -24.9599,-22.9257 -43.1778,-32.0346 C 1045.5371,275.2292 995.3831,264 940,264 c -55.3831,0 -105.537,11.2292 -141.8682,29.3947 -18.218,9.1089 -32.9697,19.9671 -43.178,32.0346 C 744.6808,337.5732 739,350.957 739,365 l 0,1 2,0 0,-1 c 0,-13.5713 5.512,-26.4945 15.4802,-38.2784 10.0327,-11.8601 24.5703,-22.5502 42.5453,-31.5377 C 835.08,277.1566 884.9261,266 940,266 c 55.0739,0 104.9199,11.1566 140.9745,29.1839 17.975,8.9875 32.5126,19.6776 42.5453,31.5377 C 1133.4879,338.5055 1139,351.4287 1139,365 l 0,1 2,0 0,-1 z"
         id="path43"
         inkscape:connector-curvature="0"
         style="fill:#ff00ff;stroke:none" />
      <path
         d="m 891,365 c 0,-3.6877 -1.4835,-7.2063 -4.166,-10.3773 -2.6179,-3.0946 -6.3862,-5.8722 -11.0318,-8.195 C 866.6157,341.8345 853.9617,339 840,339 c -13.9617,0 -26.6157,2.8345 -35.8022,7.4277 -4.6456,2.3228 -8.4139,5.1004 -11.0318,8.195 C 790.4835,357.7937 789,361.3123 789,365 l 0,1 2,0 0,-1 c 0,-3.2159 1.3147,-6.274 3.6924,-9.085 2.4424,-2.8873 5.9965,-5.4967 10.3991,-7.6981 C 814.0014,343.7619 826.3475,341 840,341 c 13.6525,0 25.9986,2.7619 34.9085,7.2169 4.4026,2.2014 7.9567,4.8108 10.3991,7.6981 2.3777,2.811 3.6924,5.8691 3.6924,9.085 l 0,1 2,0 0,-1 z"
         id="path45"
         inkscape:connector-curvature="0"
         style="fill:#00ff00;stroke:none" />
      <path
         d="m 991,365 c 0,-3.6877 -1.4835,-7.2063 -4.166,-10.3773 -2.6179,-3.0946 -6.3862,-5.8722 -11.0318,-8.195 C 966.6157,341.8345 953.9617,339 940,339 c -13.9617,0 -26.6157,2.8345 -35.8022,7.4277 -4.6456,2.3228 -8.4139,5.1004 -11.0318,8.195 C 890.4835,357.7937 889,361.3123 889,365 l 0,1 2,0 0,-1 c 0,-3.2159 1.3147,-6.274 3.6924,-9.085 2.4424,-2.8873 5.9965,-5.4967 10.3991,-7.6981 C 914.0014,343.7619 926.3475,341 940,341 c 13.6525,0 25.9986,2.7619 34.9085,7.2169 4.4026,2.2014 7.9567,4.8108 10.3991,7.6981 2.3777,2.811 3.6924,5.8691 3.6924,9.085 l 0,1 2,0 0,-1 z"
         id="path47"
         inkscape:connector-curvature="0"
         style="stroke:none" />
      <path
         d="m 1141,365.5 c 0,-5.4135 -2.183,-10.5764 -6.1306,-15.2429 -3.8831,-4.59 -9.4819,-8.7144 -16.3895,-12.1682 C 1104.7693,331.2336 1085.8654,327 1065,327 c -20.8654,0 -39.7693,4.2336 -53.4799,11.0889 -6.9077,3.4538 -12.5064,7.5782 -16.3894,12.1682 C 991.183,354.9236 989,360.0865 989,365.5 l 0,1 2,0 0,-1 c 0,-4.9418 2.0142,-9.6441 5.657,-13.9505 3.7075,-4.3828 9.0921,-8.339 15.7568,-11.6714 C 1025.8479,333.161 1044.444,329 1065,329 c 20.556,0 39.1521,4.161 52.5861,10.8781 6.6646,3.3324 12.0494,7.2886 15.7569,11.6714 3.6427,4.3064 5.657,9.0087 5.657,13.9505 l 0,1 2,0 0,-1 z"
         id="path49"
         inkscape:connector-curvature="0"
         style="fill:#ff00ff;stroke:none" />
      <path
         d="m 1141,365 c 0,-3.6877 -1.4835,-7.2063 -4.1661,-10.3773 -2.618,-3.0946 -6.3861,-5.8722 -11.0317,-8.195 C 1116.6157,341.8345 1103.9618,339 1090,339 c -13.9618,0 -26.6157,2.8345 -35.8022,7.4277 -4.6456,2.3228 -8.4137,5.1004 -11.0317,8.195 C 1040.4835,357.7937 1039,361.3123 1039,365 l 0,1 2,0 0,-1 c 0,-3.2159 1.3148,-6.274 3.6925,-9.085 2.4424,-2.8873 5.9965,-5.4967 10.3991,-7.6981 8.9099,-4.455 21.2559,-7.2169 34.9084,-7.2169 13.6525,0 25.9985,2.7619 34.9084,7.2169 4.4026,2.2014 7.9567,4.8108 10.3991,7.6981 2.3777,2.811 3.6925,5.8691 3.6925,9.085 l 0,1 2,0 0,-1 z"
         id="path51"
         inkscape:connector-curvature="0"
         style="fill:#ff00ff;stroke:none" />
      <rect
         x="80"
         width="20"
         height="20"
         y="365"
         id="rect53"
         style="fill:#000000;stroke:none" />
      <circle
         r="10"
         cx="140"
         cy="375"
         id="circle55"
         d="m 150,375 c 0,5.52285 -4.47715,10 -10,10 -5.52285,0 -10,-4.47715 -10,-10 0,-5.52285 4.47715,-10 10,-10 5.52285,0 10,4.47715 10,10 z"
         sodipodi:cx="140"
         sodipodi:cy="375"
         sodipodi:rx="10"
         sodipodi:ry="10"
         style="stroke:none" />
      <rect
         x="180"
         width="20"
         height="20"
         y="365"
         id="rect57"
         style="fill:#000000;stroke:none" />
      <circle
         r="10"
         cx="240"
         cy="375"
         id="circle59"
         d="m 250,375 c 0,5.52285 -4.47715,10 -10,10 -5.52285,0 -10,-4.47715 -10,-10 0,-5.52285 4.47715,-10 10,-10 5.52285,0 10,4.47715 10,10 z"
         sodipodi:cx="240"
         sodipodi:cy="375"
         sodipodi:rx="10"
         sodipodi:ry="10"
         style="stroke:none" />
      <rect
         x="280"
         width="20"
         height="20"
         y="365"
         id="rect61"
         style="fill:#000000;stroke:none" />
      <circle
         r="10"
         cx="340"
         cy="375"
         id="circle63"
         d="m 350,375 c 0,5.52285 -4.47715,10 -10,10 -5.52285,0 -10,-4.47715 -10,-10 0,-5.52285 4.47715,-10 10,-10 5.52285,0 10,4.47715 10,10 z"
         sodipodi:cx="340"
         sodipodi:cy="375"
         sodipodi:rx="10"
         sodipodi:ry="10"
         style="stroke:none" />
      <rect
         x="380"
         width="20"
         height="20"
         y="365"
         id="rect65"
         style="fill:#000000;stroke:none" />
      <circle
         r="10"
         cx="440"
         cy="375"
         id="circle67"
         d="m 450,375 c 0,5.52285 -4.47715,10 -10,10 -5.52285,0 -10,-4.47715 -10,-10 0,-5.52285 4.47715,-10 10,-10 5.52285,0 10,4.47715 10,10 z"
         sodipodi:cx="440"
         sodipodi:cy="375"
         sodipodi:rx="10"
         sodipodi:ry="10"
         style="stroke:none" />
      <circle
         r="10"
         cx="490"
         cy="375"
         id="circle69"
         d="m 500,375 c 0,5.52285 -4.47715,10 -10,10 -5.52285,0 -10,-4.47715 -10,-10 0,-5.52285 4.47715,-10 10,-10 5.52285,0 10,4.47715 10,10 z"
         sodipodi:cx="490"
         sodipodi:cy="375"
         sodipodi:rx="10"
         sodipodi:ry="10"
         style="stroke:none" />
      <rect
         x="530"
         width="20"
         height="20"
         y="365"
         id="rect71"
         style="fill:#000000;stroke:none" />
      <circle
         r="10"
         cx="590"
         cy="375"
         id="circle73"
         d="m 600,375 c 0,5.52285 -4.47715,10 -10,10 -5.52285,0 -10,-4.47715 -10,-10 0,-5.52285 4.47715,-10 10,-10 5.52285,0 10,4.47715 10,10 z"
         sodipodi:cx="590"
         sodipodi:cy="375"
         sodipodi:rx="10"
         sodipodi:ry="10"
         style="stroke:none" />
      <circle
         r="10"
         cx="640"
         cy="375"
         id="circle75"
         d="m 650,375 c 0,5.52285 -4.47715,10 -10,10 -5.52285,0 -10,-4.47715 -10,-10 0,-5.52285 4.47715,-10 10,-10 5.52285,0 10,4.47715 10,10 z"
         sodipodi:cx="640"
         sodipodi:cy="375"
         sodipodi:rx="10"
         sodipodi:ry="10"
         style="stroke:none" />
      <rect
         x="680"
         width="20"
         height="20"
         y="365"
         id="rect77"
         style="fill:#000000;stroke:none" />
      <circle
         r="10"
         cx="740"
         cy="375"
         id="circle79"
         d="m 750,375 c 0,5.52285 -4.47715,10 -10,10 -5.52285,0 -10,-4.47715 -10,-10 0,-5.52285 4.47715,-10 10,-10 5.52285,0 10,4.47715 10,10 z"
         sodipodi:cx="740"
         sodipodi:cy="375"
         sodipodi:rx="10"
         sodipodi:ry="10"
         style="stroke:none" />
      <circle
         r="10"
         cx="790"
         cy="375"
         id="circle81"
         d="m 800,375 c 0,5.52285 -4.47715,10 -10,10 -5.52285,0 -10,-4.47715 -10,-10 0,-5.52285 4.47715,-10 10,-10 5.52285,0 10,4.47715 10,10 z"
         sodipodi:cx="790"
         sodipodi:cy="375"
         sodipodi:rx="10"
         sodipodi:ry="10"
         style="stroke:none" />
      <circle
         r="10"
         cx="840"
         cy="375"
         id="circle83"
         d="m 850,375 c 0,5.52285 -4.47715,10 -10,10 -5.52285,0 -10,-4.47715 -10,-10 0,-5.52285 4.47715,-10 10,-10 5.52285,0 10,4.47715 10,10 z"
         sodipodi:cx="840"
         sodipodi:cy="375"
         sodipodi:rx="10"
         sodipodi:ry="10"
         style="stroke:none" />
      <rect
         x="880"
         width="20"
         height="20"
         y="365"
         id="rect85"
         style="fill:#000000;stroke:none" />
      <circle
         r="10"
         cx="940"
         cy="375"
         id="circle87"
         d="m 950,375 c 0,5.52285 -4.47715,10 -10,10 -5.52285,0 -10,-4.47715 -10,-10 0,-5.52285 4.47715,-10 10,-10 5.52285,0 10,4.47715 10,10 z"
         sodipodi:cx="940"
         sodipodi:cy="375"
         sodipodi:rx="10"
         sodipodi:ry="10"
         style="stroke:none" />
      <rect
         x="980"
         width="20"
         height="20"
         y="365"
         id="rect89"
         style="fill:#000000;stroke:none" />
      <circle
         r="10"
         cx="1040"
         cy="375"
         id="circle91"
         d="m 1050,375 c 0,5.52285 -4.4772,10 -10,10 -5.5228,0 -10,-4.47715 -10,-10 0,-5.52285 4.4772,-10 10,-10 5.5228,0 10,4.47715 10,10 z"
         sodipodi:cx="1040"
         sodipodi:cy="375"
         sodipodi:rx="10"
         sodipodi:ry="10"
         style="stroke:none" />
      <circle
         r="10"
         cx="1090"
         cy="375"
         id="circle93"
         d="m 1100,375 c 0,5.52285 -4.4772,10 -10,10 -5.5228,0 -10,-4.47715 -10,-10 0,-5.52285 4.4772,-10 10,-10 5.5228,0 10,4.47715 10,10 z"
         sodipodi:cx="1090"
         sodipodi:cy="375"
         sodipodi:rx="10"
         sodipodi:ry="10"
         style="stroke:none" />
      <circle
         r="10"
         cx="1140"
         cy="375"
         id="circle95"
         d="m 1150,375 c 0,5.52285 -4.4772,10 -10,10 -5.5228,0 -10,-4.47715 -10,-10 0,-5.52285 4.4772,-10 10,-10 5.5228,0 10,4.47715 10,10 z"
         sodipodi:cx="1140"
         sodipodi:cy="375"
         sodipodi:rx="10"
         sodipodi:ry="10"
         style="fill:none;stroke:#ff00ff;stroke-width:3" />
      <text
         x="30"
         xml:space="preserve"
         y="385"
         id="text97"
         style="fill:#000000;stroke:none">N</text>
      <text
         x="1180"
         xml:space="preserve"
         y="385"
         id="text99"
         style="fill:#000000;stroke:none">C</text>
      <text
         x="314.10599"
         xml:space="preserve"
         y="432.11258"
         id="text193"
         style="fill:#000000;stroke:none">[Edges: </text>
      <text
         x="382.10599"
         xml:space="preserve"
         y="432.11258"
         id="text195"
         style="stroke:none">parallel</text>
      <text
         x="442.10599"
         xml:space="preserve"
         y="432.11258"
         id="text197"
         style="fill:#00ff00;stroke:none">mixed</text>
      <text
         x="494.10599"
         xml:space="preserve"
         y="432.11258"
         id="text199"
         style="fill:#ff00ff;stroke:none">ligand</text>
      <text
         x="546.10602"
         xml:space="preserve"
         y="432.11258"
         id="text201"
         style="fill:#000000;stroke:none">]</text>
      <text
         x="560.10602"
         xml:space="preserve"
         y="432.11258"
         id="text203"
         style="fill:#000000;stroke:none"> [Vertices: </text>
      <circle
         r="10"
         cx="420"
         cy="494"
         id="circle205"
         d="m 430,494 c 0,5.52285 -4.47715,10 -10,10 -5.52285,0 -10,-4.47715 -10,-10 0,-5.52285 4.47715,-10 10,-10 5.52285,0 10,4.47715 10,10 z"
         sodipodi:cx="420"
         sodipodi:cy="494"
         sodipodi:rx="10"
         sodipodi:ry="10"
         style="stroke:none"
         transform="translate(234.10599,-66.887427)" />
      <text
         x="674.10602"
         xml:space="preserve"
         y="432.11258"
         id="text207"
         style="stroke:none">helix</text>
      <rect
         x="715.10602"
         width="20"
         height="20"
         y="417.11258"
         id="rect209"
         style="fill:#000000;stroke:none" />
      <text
         x="745.10602"
         xml:space="preserve"
         y="432.11258"
         id="text211"
         style="fill:#000000;stroke:none">strand</text>
      <circle
         r="10"
         cx="574"
         cy="494"
         id="circle213"
         d="m 584,494 c 0,5.52285 -4.47715,10 -10,10 -5.52285,0 -10,-4.47715 -10,-10 0,-5.52285 4.47715,-10 10,-10 5.52285,0 10,4.47715 10,10 z"
         sodipodi:cx="574"
         sodipodi:cy="494"
         sodipodi:rx="10"
         sodipodi:ry="10"
         style="fill:none;stroke:#ff00ff;stroke-width:3"
         transform="translate(234.10599,-66.887427)" />
      <text
         x="828.10602"
         xml:space="preserve"
         y="432.11258"
         id="text215"
         style="fill:#ff00ff;stroke:none">ligand</text>
      <text
         x="880.10602"
         xml:space="preserve"
         y="432.11258"
         id="text217"
         style="fill:#000000;stroke:none">]</text>
    </g>
  </g>
</svg>
